{"title":"Bawal Boy  -  A Hot Bengali 18+ Film","uid":6447688,"size":440593216,"categoryP":"video","categoryS":"movies","magnet":"?xt=urn:btih:7cc0b133e9eebf26610a4eff984832f1c70038d8&amp;dn=Bawal+Boy++-++A+Hot+Bengali+18%2B+Film&amp;tr=udp%3A%2F%2Ftracker.openbittorrent.com%3A80&amp;tr=udp%3A%2F%2Fopen.demonii.com%3A1337&amp;tr=udp%3A%2F%2Ftracker.coppersurfer.tk%3A6969&amp;tr=udp%3A%2F%2Fexodus.desync.com%3A6969","seeders":0,"leechers":50,"uploader":"Robin5555","files":1,"time":1307319896,"description":"------------------------------:TPB IS BENEDICTION TO ME :--------------------------\n\n\nFilm General Complete Info List :\n\nFormat                           : MPEG-PS\nFile size                        : 420 MiB\nDuration                         : 42mn 14s\nOverall bit rate                 : 1 391 Kbps\n\nVideo\nID                               : 224 (0xE0)\nFormat                           : MPEG Video\nFormat version                   : Version 1\nFormat settings, BVOP            : No\nFormat settings, Matrix          : Default\nDuration                         : 42mn 14s\nBit rate mode                    : Constant\nBit rate                         : 1 150 Kbps\nWidth                            : 352 pixels\nHeight                           : 240 pixels\nDisplay aspect ratio             : 3:2\nFrame rate                       : 29.970 fps\nStandard                         : NTSC\nColor space                      : YUV\nBit depth                        : 8 bits\nScan type                        : Progressive\nCompression mode                 : Lossy\nBits/(Pixel*Frame)               : 0.454\nStream size                      : 344 MiB (82%)\n\nAudio\nID                               : 192 (0xC0)\nFormat                           : MPEG Audio\nFormat version                   : Version 1\nFormat profile                   : Layer 2\nDuration                         : 42mn 14s\nBit rate mode                    : Constant\nBit rate                         : 224 Kbps\nChannel(s)                       : 2 channels\nSampling rate                    : 44.1 KHz\nCompression mode                 : Lossy\nStream size                      : 67.7 MiB (16%)\n\n\nScreen Link :\n &lt;a href=&quot;\nhttp://www.desiupload.com/show.php/871506_BawalBoy2011thumb.jpg.html&quot; rel=&quot;nofollow&quot; target=&quot;_NEW&quot;&gt;\nhttp://www.desiupload.com/show.php/871506_BawalBoy2011thumb.jpg.html&lt;/a&gt;\n\nSeeding Time : 2:00 - 8:00 IST,  Please Post Comments &amp; Seed After Download\n\n\n------------------------------:TPB IS BENEDICTION TO ME :--------------------------\n","torrent":{"xt":"urn:btih:7cc0b133e9eebf26610a4eff984832f1c70038d8","amp;dn":"Bawal+Boy++-++A+Hot+Bengali+18%2B+Film","amp;tr":["udp%3A%2F%2Ftracker.openbittorrent.com%3A80","udp%3A%2F%2Fopen.demonii.com%3A1337","udp%3A%2F%2Ftracker.coppersurfer.tk%3A6969","udp%3A%2F%2Fexodus.desync.com%3A6969"],"infoHash":"7cc0b133e9eebf26610a4eff984832f1c70038d8","infoHashBuffer":{"type":"Buffer","data":[124,192,177,51,233,238,191,38,97,10,78,255,152,72,50,241,199,0,56,216]},"announce":[],"urlList":[]}}